{"title":"Rebel Without a Cause(1955)","uid":12352141,"size":1112141374,"categoryP":"video","categoryS":"movies","magnet":"?xt=urn:btih:f9fbd6b47a60c61309dbb1580b2f3897f8c501b7&amp;dn=Rebel+Without+a+Cause%281955%29&amp;tr=udp%3A%2F%2Ftracker.openbittorrent.com%3A80&amp;tr=udp%3A%2F%2Fopen.demonii.com%3A1337&amp;tr=udp%3A%2F%2Ftracker.coppersurfer.tk%3A6969&amp;tr=udp%3A%2F%2Fexodus.desync.com%3A6969","seeders":0,"leechers":0,"uploader":"dascuba","files":1,"time":1441439428,"description":"Rebel Without a Cause (1955)\nPG-13  |  111 min  |  Drama  |  27 October 1955 (USA)\n7.8 Your rating:   -/10   Ratings: 7.8/10 from 58,405 users   \nReviews: 276 user | 133 critic\nA rebellious young man with a troubled past comes to a new town, finding friends and enemies.\n\nDirector: Nicholas Ray\nWriters: Stewart Stern (screen play), Irving Shulman (adaptation), 1 more credit Â»\nStars: James Dean, Natalie Wood, Sal Mineo\n\nGeneral\nComplete name          : C:REBEL WITHOUT A CAUSEREBEL_WITHOUT_A_CAUSE_Title1.mp4\nFormat                                   : MPEG-4\nFormat profile                           : Base Media\nCodec ID                                 : isom\nFile size                                : 1.04 GiB\nDuration                                 : 1h 50mn\nOverall bit rate mode                    : Variable\nOverall bit rate                         : 1 338 Kbps\nMovie name                               : REBEL_WITHOUT_A_CAUSE\nGenre                                    : Drama\nWriting application                      : Lavf54.6.100\n\nVideo\nID                                       : 1\nFormat                                   : AVC\nFormat/Info                              : Advanced Video Codec\nFormat profile                           : Baseline@L3\nFormat settings, CABAC                   : No\nFormat settings, ReFrames                : 6 frames\nFormat settings, GOP                     : M=1, N=60\nCodec ID                                 : avc1\nCodec ID/Info                            : Advanced Video Coding\nDuration                                 : 1h 50mn\nBit rate                                 : 1 204 Kbps\nWidth                                    : 720 pixels\nHeight                                   : 404 pixels\nDisplay aspect ratio                     : 16:9\nFrame rate mode                          : Constant\nFrame rate                               : 29.970 fps\nColor space                              : YUV\nChroma subsampling                       : 4:2:0\nBit depth                                : 8 bits\nScan type                                : Progressive\nBits/(Pixel*Frame)                       : 0.138\nStream size                              : 954 MiB (90%)\n\nAudio\nID                                       : 2\nFormat                                   : AAC\nFormat/Info                              : Advanced Audio Codec\nFormat profile                           : LC\nCodec ID                                 : 40\nDuration                                 : 1h 50mn\nBit rate mode                            : Variable\nBit rate                                 : 128 Kbps\nMaximum bit rate                         : 135 Kbps\nChannel(s)                               : 2 channels\nChannel positions                        : Front: L R\nSampling rate                            : 44.1 KHz\nCompression mode                         : Lossy\nStream size                              : 101 MiB (10%)","torrent":{"xt":"urn:btih:f9fbd6b47a60c61309dbb1580b2f3897f8c501b7","amp;dn":"Rebel+Without+a+Cause%281955%29","amp;tr":["udp%3A%2F%2Ftracker.openbittorrent.com%3A80","udp%3A%2F%2Fopen.demonii.com%3A1337","udp%3A%2F%2Ftracker.coppersurfer.tk%3A6969","udp%3A%2F%2Fexodus.desync.com%3A6969"],"infoHash":"f9fbd6b47a60c61309dbb1580b2f3897f8c501b7","infoHashBuffer":{"type":"Buffer","data":[249,251,214,180,122,96,198,19,9,219,177,88,11,47,56,151,248,197,1,183]},"announce":[],"urlList":[]}}